<svg enable-background="new 0 0 2500 753.4" viewBox="0 0 2500 753.4" xmlns="http://www.w3.org/2000/svg"><path d="m1550.9 589.2c-145.3 107.1-355.9 164.2-537.2 164.2-254.2 0-483.1-94-656.2-250.4-13.6-12.3-1.4-29.1 14.9-19.5 187 108.7 418 174.1 656.6 174.1 161 0 338-33.3 500.8-102.4 24.6-10.4 45.2 16.1 21.1 34" fill="#f90"/><path d="m1611.3 520.1c-18.5-23.7-122.8-11.2-169.5-5.7-14.3 1.7-16.4-10.7-3.6-19.6 83-58.4 219.3-41.6 235.2-22 15.9 19.7-4.1 156.3-82.2 221.5-12 10-23.4 4.7-18.1-8.6 17.6-43.8 56.9-141.8 38.2-165.6" fill="#f90"/><g fill="#221f1f"><path d="m1445.1 82.3v-56.8c0-8.6 6.5-14.4 14.4-14.4h254.3c8.2 0 14.7 5.9 14.7 14.4v48.6c-.1 8.2-7 18.8-19.2 35.7l-131.8 188.2c49-1.2 100.7 6.1 145.1 31.1 10 5.7 12.7 13.9 13.5 22.1v60.6c0 8.3-9.1 18-18.7 13-78.2-41-182.2-45.5-268.7.4-8.8 4.8-18.1-4.8-18.1-13.1v-57.6c0-9.3.1-25 9.4-39.1l152.7-219h-132.9c-8.2.1-14.7-5.6-14.7-14.1m-927.8 354.4h-77.3c-7.4-.5-13.3-6.1-13.8-13.2v-397.1c0-7.9 6.6-14.3 14.9-14.3h72.2c7.5.3 13.5 6.1 14 13.3v51.9h1.4c18.8-50.2 54.2-73.6 101.9-73.6 48.4 0 78.7 23.4 100.4 73.6 18.7-50.2 61.3-73.6 106.9-73.6 32.4 0 67.9 13.4 89.6 43.4 24.5 33.4 19.5 81.9 19.5 124.5l-.1 250.6c0 7.9-6.6 14.4-14.9 14.4h-77.3c-7.7-.5-13.9-6.7-13.9-14.4v-210.3c0-16.8 1.5-58.5-2.2-74.4-5.8-26.7-23.1-34.2-45.5-34.2-18.7 0-38.3 12.5-46.2 32.5s-7.2 53.5-7.2 76.1v210.5c0 7.9-6.6 14.4-14.9 14.4h-77.3c-7.8-.5-13.9-6.7-13.9-14.4l-.1-210.5c0-44.3 7.3-109.5-47.7-109.5-55.6 0-53.4 63.6-53.4 109.5v210.5c-.1 7.9-6.8 14.3-15.1 14.3m1430.1-432.9c114.8 0 176.9 98.6 176.9 224 0 121.1-68.7 217.2-176.9 217.2-112.7 0-174.1-98.6-174.1-221.5 0-123.6 62.1-219.7 174.1-219.7m.6 81.1c-57 0-60.6 77.7-60.6 126.1 0 48.5-.8 152.1 60 152.1 60 0 62.8-83.6 62.8-134.5 0-33.5-1.4-73.6-11.5-105.3-8.8-27.6-26.1-38.4-50.7-38.4m325.2 351.8h-77c-7.7-.5-13.9-6.7-13.9-14.4l-.1-397.2c.7-7.3 7.1-13 14.9-13h71.7c6.7.3 12.3 4.9 13.8 11.1v60.8h1.4c21.7-54.3 52-80.2 105.4-80.2 34.7 0 68.6 12.5 90.3 46.8 20.2 31.8 20.2 85.2 20.2 123.6v250c-.9 7-7.3 12.5-14.9 12.5h-77.6c-7.1-.5-13-5.8-13.7-12.5v-215.7c0-43.4 5-107-48.4-107-18.8 0-36.1 12.6-44.7 31.8-10.9 24.3-12.3 48.4-12.3 75.2v213.8c-.1 8-6.8 14.4-15.1 14.4"/><path d="m1242.3 247v-16.8c-55.9 0-115 12-115 77.9 0 33.4 17.3 56 47 56 21.8 0 41.2-13.4 53.5-35.1 15.3-26.7 14.5-51.8 14.5-82m78.1 188.6c-5.1 4.6-12.5 4.9-18.3 1.9-25.7-21.3-30.3-31.2-44.4-51.6-42.4 43.3-72.5 56.3-127.5 56.3-65.1 0-115.8-40.2-115.8-120.6 0-62.8 34.1-105.6 82.5-126.5 42-18.5 100.7-21.8 145.5-26.9v-10c0-18.4 1.4-40.2-9.4-56-9.5-14.3-27.5-20.1-43.4-20.1-29.5 0-55.8 15.1-62.3 46.5-1.3 7-6.4 13.8-13.4 14.1l-75.1-8.1c-6.3-1.4-13.3-6.5-11.5-16.2 17.3-91 99.5-118.4 173-118.4 37.6 0 86.8 10 116.5 38.5 37.6 35.2 34.1 82.1 34.1 133.1v120.6c0 36.2 15 52.1 29.2 71.7 5 7 6.1 15.3-.2 20.6-15.8 13.2-43.9 37.7-59.3 51.4z"/><path d="m228 247v-16.8c-55.9 0-115 12-115 77.9 0 33.4 17.3 56 47 56 21.8 0 41.2-13.4 53.5-35.1 15.2-26.7 14.5-51.8 14.5-82m78 188.6c-5.1 4.6-12.5 4.9-18.3 1.9-25.7-21.3-30.3-31.2-44.4-51.6-42.4 43.3-72.5 56.3-127.5 56.3-65.1-.1-115.8-40.2-115.8-120.6 0-62.8 34.1-105.6 82.5-126.5 42-18.5 100.7-21.8 145.5-26.9v-10c0-18.4 1.4-40.2-9.4-56-9.5-14.3-27.5-20.1-43.4-20.1-29.5 0-55.8 15.1-62.3 46.5-1.3 7-6.4 13.8-13.4 14.1l-75.1-8.1c-6.3-1.4-13.3-6.5-11.5-16.2 17.4-91 99.5-118.4 173.1-118.4 37.6 0 86.8 10 116.5 38.5 37.6 35.2 34.1 82.1 34.1 133.1v120.6c0 36.2 15 52.1 29.2 71.7 5 7 6.1 15.3-.2 20.6-15.8 13.2-43.9 37.7-59.3 51.4z"/></g></svg>